{
  "title": "Hitchcock/Truffaut 2015 HDTV 720p Legendado PT-BR",
  "uid": 14780427,
  "size": 3228291200,
  "categoryP": "video",
  "categoryS": "hd___movies",
  "magnet": "?xt=urn:btih:c7d8c54c73915af4a2163232c3f817fc0265e1e1&amp;dn=Hitchcock%2FTruffaut+2015+HDTV+720p+Legendado+PT-BR&amp;tr=udp%3A%2F%2Ftracker.leechers-paradise.org%3A6969&amp;tr=udp%3A%2F%2Fzer0day.ch%3A1337&amp;tr=udp%3A%2F%2Fopen.demonii.com%3A1337&amp;tr=udp%3A%2F%2Ftracker.coppersurfer.tk%3A6969&amp;tr=udp%3A%2F%2Fexodus.desync.com%3A6969",
  "seeders": 40,
  "leechers": 3,
  "uploader": null,
  "files": 1,
  "time": 1464986643,
  "description": "Audio: English\r\nLegendas/subtitles: Português (hardsubed)\r\n\r\n---------------------------------------\r\n\r\nFilmmakers discuss how Francois Truffaut's 1966 book &quot;Cinema According to Hitchcock&quot; influenced their work. \r\n\r\n---------------------------------------\r\nCineastas discutem como o livro de François Truffaut de 1966 influenciou seu trabalho.\r\n\r\n---------------------------------------\r\n\r\nideo\r\nID                             : 1\r\nFormat                         : AVC\r\nFormat/Info                    : Advanced Video Codec\r\nFormat profile                 :   \r\nFormat settings, CABAC         : Yes\r\nFormat settings, ReFrames      : 4 frames\r\nCodec ID                       : V_MPEG4/ISO/AVC\r\nDuration                       : 1h 19mn\r\nBit rate                       : 4 999 Kbps\r\nWidth                          : 1 280 pixels\r\nHeight                         : 720 pixels\r\nDisplay aspect ratio           : 16:9\r\nFrame rate mode                : Constant\r\nFrame rate                     : 59.880 fps\r\nOriginal frame rate            : 59.940 fps\r\nColor space                    : YUV\r\nChroma subsampling             : 4:2:0\r\nBit depth                      : 8 bits\r\nScan type                      : Progressive\r\nBits/(Pixel*Frame)             : 0.091\r\nStream size                    : 2.73 GiB (91%)\r\n\r\n\r\nAudio\r\nID                             : 2\r\nFormat                         : AC-3\r\nFormat/Info                    : Audio Coding 3\r\nMode extension                 : CM (complete main)\r\nFormat settings, Endianness    : Big\r\nCodec ID                       : A_AC3\r\nDuration                       : 1h 19mn\r\nBit rate mode                  : Constant\r\nBit rate                       : 384 Kbps\r\nChannel(s)                     : 2 channels\r\nChannel positions              : Front: L R\r\nSampling rate                  : 48.0 KHz\r\nBit depth                      : 16 bits\r\nCompression mode               : Lossy\r\nDelay relative to video        : 14ms\r\nStream size                    : 220 MiB (7%)\r\nLanguage                       : English\r\nDefault                        : Yes\r\nForced                         : No",
  "parsed": {
    "xt": "urn:btih:c7d8c54c73915af4a2163232c3f817fc0265e1e1",
    "dn": "Hitchcock/Truffaut 2015 HDTV 720p Legendado PT-BR",
    "tr": [
      "udp://exodus.desync.com:6969",
      "udp://open.demonii.com:1337",
      "udp://tracker.coppersurfer.tk:6969",
      "udp://tracker.leechers-paradise.org:6969",
      "udp://zer0day.ch:1337"
    ],
    "infoHash": "c7d8c54c73915af4a2163232c3f817fc0265e1e1",
    "infoHashBuffer": {
      "type": "Buffer",
      "data": [
        199,
        216,
        197,
        76,
        115,
        145,
        90,
        244,
        162,
        22,
        50,
        50,
        195,
        248,
        23,
        252,
        2,
        101,
        225,
        225
      ]
    },
    "name": "Hitchcock/Truffaut 2015 HDTV 720p Legendado PT-BR",
    "announce": [
      "udp://exodus.desync.com:6969",
      "udp://open.demonii.com:1337",
      "udp://tracker.coppersurfer.tk:6969",
      "udp://tracker.leechers-paradise.org:6969",
      "udp://zer0day.ch:1337"
    ],
    "urlList": []
  },
  "previous": 97,
  "peers": 139,
  "last_updated": "2016-12-27T12:49:36.506Z"
}